PathFileType	4	(X/Y/Z)	OpenSim_Sub02_CSBaseline_Magnet.trc
DataRate	CameraRate	NumFrames	NumMarkers	Units	OrigDataRate	OrigDataStartFrame	OrigNumFrames
100	100	23	8	m	100	1765	7057
Frame#	Time	torso_imu_offset_imu	pelvis_imu_offset_imu	tibia_r_imu_offset_imu	femur_r_imu_offset_imu	tibia_l_imu_offset_imu	femur_l_imu_offset_imu	toes_r_imu_offset_imu	toes_l_imu_offset_imu
				X1	Y1	Z1	X2	Y2	Z2	X3	Y3	Z3	X4	Y4	Z4	X5	Y5	Z5	X6	Y6	Z6	X7	Y7	Z7	X8		Y8	Z8	

1765	17.64000000	-0.93217754	-0.15489282	-0.02234720	-0.65723123	0.16525103	-0.63561031	-0.30097895	-0.73153206	-0.28074670	-0.65600523	-0.47963325	0.23928161	-0.75757157	0.27523591	0.08625012	-0.67998045	0.04141482	0.22495337	-0.64654714	-0.43639241	-0.40863963	-0.57269965	-0.17019518	-0.54926543
1766	17.65000000	-0.93829564	-0.15346000	-0.02695008	-0.65929482	0.15875290	-0.63012463	-0.28332999	-0.73424669	-0.28520972	-0.65670628	-0.47967435	0.23494465	-0.76146772	0.27358349	0.08834769	-0.67172308	0.04259793	0.24028632	-0.65612850	-0.44082987	-0.39407576	-0.59052533	-0.16910205	-0.53186357
1767	17.66000000	-0.94048524	-0.15875185	-0.03536026	-0.66019325	0.16144604	-0.62677251	-0.26747711	-0.73495544	-0.28582775	-0.65951425	-0.47559771	0.23806531	-0.75455071	0.27294048	0.08649697	-0.66788181	0.05449584	0.24918397	-0.67734267	-0.44764496	-0.37964401	-0.60095232	-0.16317961	-0.51819299
1768	17.67000000	-0.93675207	-0.15590502	-0.04100309	-0.65845005	0.15930035	-0.62812755	-0.25232526	-0.73961102	-0.29036976	-0.66406071	-0.47942852	0.22606882	-0.75741209	0.29158677	0.08961902	-0.66540022	0.05354518	0.24378843	-0.69276923	-0.45382017	-0.35183580	-0.60629599	-0.15933503	-0.50295322
1769	17.68000000	-0.93479784	-0.15731468	-0.05417905	-0.66168710	0.15103265	-0.62934831	-0.23470919	-0.74381134	-0.29655614	-0.66718853	-0.47656091	0.22274960	-0.75292726	0.30030669	0.09647253	-0.66253779	0.06116982	0.24760527	-0.70609542	-0.45706739	-0.32926632	-0.61004943	-0.15649335	-0.50373768
1770	17.69000000	-0.93453352	-0.15787349	-0.05617186	-0.66536793	0.14903611	-0.62487329	-0.22003333	-0.75139717	-0.30211984	-0.66625631	-0.47395405	0.21784459	-0.74185642	0.30938911	0.10568707	-0.65764340	0.05784443	0.24611830	-0.72058405	-0.46105667	-0.29922703	-0.60603112	-0.15089954	-0.51470950
1771	17.70000000	-0.93067030	-0.15661395	-0.06101097	-0.66690867	0.13872343	-0.62298406	-0.20373223	-0.75297763	-0.30046962	-0.66902125	-0.46582428	0.21287943	-0.74368727	0.31279614	0.11671554	-0.66269067	0.05440703	0.25563399	-0.73793395	-0.47008461	-0.26315531	-0.60533110	-0.16329573	-0.50623011
1772	17.71000000	-0.93321708	-0.15857314	-0.05920298	-0.66958951	0.13116919	-0.62500706	-0.18045573	-0.75065745	-0.30553568	-0.67777961	-0.46130095	0.20408494	-0.73841569	0.30725989	0.12895991	-0.65803934	0.05372637	0.26129683	-0.75077300	-0.47921920	-0.22300057	-0.60437136	-0.17120456	-0.50322419
1773	17.72000000	-0.93035088	-0.15908128	-0.06543438	-0.67312984	0.12374877	-0.61724720	-0.16571110	-0.75942469	-0.30670603	-0.68376171	-0.46034469	0.19775698	-0.73546583	0.31305538	0.14076635	-0.65776351	0.06226349	0.26376362	-0.76188264	-0.48950586	-0.17304312	-0.60849153	-0.17394067	-0.50284659
1774	17.73000000	-0.93425292	-0.16043472	-0.07095234	-0.67549240	0.12616616	-0.61730310	-0.14696477	-0.75678087	-0.31500211	-0.69047894	-0.45169860	0.19125502	-0.73786362	0.32126387	0.15040485	-0.64872571	0.06222616	0.27497149	-0.76404122	-0.49776449	-0.12013656	-0.60703317	-0.18052454	-0.49962876
1775	17.74000000	-0.93096687	-0.16246731	-0.07208146	-0.68041270	0.12350772	-0.61913683	-0.12932382	-0.75927027	-0.32436205	-0.70083564	-0.45049012	0.17184121	-0.73105483	0.31572477	0.16271340	-0.63884039	0.06535524	0.28139085	-0.76884531	-0.50554354	-0.06986687	-0.60422440	-0.18484856	-0.50837237
1776	17.75000000	-0.93354553	-0.16693696	-0.07157793	-0.68294434	0.12480695	-0.61871268	-0.11292725	-0.75814287	-0.32235186	-0.71149988	-0.43442064	0.15946437	-0.72907861	0.32486165	0.16369905	-0.63816009	0.07773569	0.28541137	-0.76498495	-0.51287097	-0.01938559	-0.60314855	-0.18797142	-0.50574716
1777	17.76000000	-0.93384771	-0.16497030	-0.07241187	-0.68080685	0.13041012	-0.61450228	-0.09712655	-0.75618409	-0.32758123	-0.71717864	-0.42188845	0.14588578	-0.72530466	0.33359018	0.16121186	-0.63803548	0.08669150	0.28404031	-0.75576216	-0.52764316	0.03960046	-0.60542519	-0.18828193	-0.50998260
1778	17.77000000	-0.92779736	-0.16735428	-0.07414689	-0.68199239	0.13890906	-0.60550301	-0.07377307	-0.75261268	-0.33389699	-0.73102250	-0.41605371	0.12566995	-0.72240258	0.34623098	0.16104842	-0.62849824	0.09430179	0.28928175	-0.74102610	-0.54188724	0.08784804	-0.60904671	-0.19001371	-0.51420839
1779	17.78000000	-0.93155794	-0.16686373	-0.07892348	-0.68474249	0.14343939	-0.60427605	-0.05943628	-0.74751338	-0.34953905	-0.74291853	-0.40110701	0.10632634	-0.71690551	0.35651359	0.15993632	-0.62403445	0.10023246	0.29379357	-0.73192319	-0.54994720	0.13023461	-0.60982178	-0.19055567	-0.50625158
1780	17.79000000	-0.92979483	-0.17150605	-0.08013578	-0.68576483	0.14639231	-0.60894901	-0.04057312	-0.74435322	-0.36351540	-0.75006407	-0.38783861	0.09188690	-0.71397051	0.36272868	0.15603781	-0.62130980	0.09775011	0.29681198	-0.71347830	-0.56015185	0.17087531	-0.60583356	-0.18723167	-0.51012409
1781	17.80000000	-0.93068855	-0.17819342	-0.07552076	-0.67864248	0.15246317	-0.60763405	-0.02937335	-0.73884690	-0.37587524	-0.75507399	-0.37181331	0.07563449	-0.70793900	0.37538951	0.15226805	-0.61748138	0.10169063	0.30224842	-0.68608481	-0.57126618	0.19824838	-0.61407390	-0.18657305	-0.51278708
1782	17.81000000	-0.92580005	-0.17778207	-0.08500937	-0.67448885	0.15296448	-0.60622957	-0.02208272	-0.73173563	-0.39111393	-0.76603967	-0.35972695	0.06132682	-0.70768985	0.38061040	0.15165364	-0.61494565	0.10462577	0.31494765	-0.66486772	-0.58885057	0.22078498	-0.61607315	-0.19661344	-0.51122865
1783	17.82000000	-0.92504084	-0.17975748	-0.07815209	-0.67969332	0.15501674	-0.61018792	-0.00976068	-0.71798202	-0.40752066	-0.77703487	-0.34372008	0.04383847	-0.70544385	0.38422663	0.15503881	-0.60648592	0.10588612	0.31670067	-0.63224959	-0.60597950	0.23860249	-0.61609574	-0.19247035	-0.50458815
1784	17.83000000	-0.92832175	-0.17974729	-0.07982095	-0.67385224	0.16038026	-0.61292628	-0.00017312	-0.70861891	-0.42867144	-0.78078889	-0.32534868	0.02906141	-0.70019204	0.39189925	0.16352578	-0.60048819	0.10946187	0.31757602	-0.60753934	-0.62363325	0.24953875	-0.61534589	-0.19714400	-0.51116506
1785	17.84000000	-0.92688515	-0.18360126	-0.07908189	-0.67559555	0.16422515	-0.61154176	0.00588835	-0.69785786	-0.44146816	-0.78970968	-0.30912894	0.02443124	-0.69629252	0.40220055	0.15796636	-0.59943730	0.10960425	0.31808063	-0.58062869	-0.64563843	0.24666430	-0.61856000	-0.19671043	-0.50439431
1786	17.85000000	-0.92342709	-0.18845404	-0.07102936	-0.68029237	0.17554072	-0.61378848	0.00305328	-0.68917724	-0.45982185	-0.79822164	-0.29685738	0.01921734	-0.69002404	0.40163310	0.16073352	-0.59756354	0.11155599	0.31895182	-0.54904800	-0.66995354	0.23605819	-0.62474772	-0.20049820	-0.49352545
1787	17.86000000	-0.92973489	-0.18833354	-0.07946655	-0.67456946	0.17750287	-0.61028613	-0.00333440	-0.67333298	-0.47822985	-0.80175414	-0.28297853	0.00740431	-0.69134527	0.40748284	0.16931700	-0.59955141	0.11138622	0.33079908	-0.52806023	-0.69499789	0.19656011	-0.62292849	-0.20360687	-0.50185992
